# xmcd
#
# Track frame offsets:
#	150
#	18852
#	30489
#	47471
#	62509
#	79138
#	89686
#	103953
#	116115
#	130177
#	148662
#	160238
#	172450
#	184407
#	197072
#	212044
#	223585
#	233479
#	247348
#	262370
#
# Disc length: 3698 seconds
#
# Revision: 1
# Processed by: cddbd v1.4PL0 Copyright (c) Steve Scherf et al.
# Submitted via: audiograbber 1.80
#
DISCID=330e7014
DTITLE=Varios - Bailão dos Cafagestes Vol 5
DYEAR=1900
DGENRE=
TTITLE0=Garagem da Vizinha
TTITLE1=Socorro
TTITLE2=Saudade Aperta
TTITLE3=Gol do Coração
TTITLE4=Prá La de Bagdá
TTITLE5=O Negócio da Minha Mulher
TTITLE6=Levanta Esse Deitado
TTITLE7=Mete a Espora
TTITLE8=Jogo de Truco
TTITLE9=Você Virou Saudade
TTITLE10=A Cobra Vai Fumar
TTITLE11=Ya Vei
TTITLE12=Saudade
TTITLE13=Comer, Comer
TTITLE14=Tche-Tche-Tche
TTITLE15=Chifre Queimado
TTITLE16=Quem Tem ... Tem Medo
TTITLE17=Saudade esta Judiando
TTITLE18=Ta Na Casca
TTITLE19=Vida Cigana
EXTD=
EXTT0=
EXTT1=
EXTT2=
EXTT3=
EXTT4=
EXTT5=
EXTT6=
EXTT7=
EXTT8=
EXTT9=
EXTT10=
EXTT11=
EXTT12=
EXTT13=
EXTT14=
EXTT15=
EXTT16=
EXTT17=
EXTT18=
EXTT19=
PLAYORDER=
